<mxfile host="Electron" agent="Mozilla/5.0 (X11; Linux x86_64) AppleWebKit/537.36 (KHTML, like Gecko) draw.io/24.7.17 Chrome/128.0.6613.36 Electron/32.0.1 Safari/537.36" version="24.7.17">
  <diagram name="Page-1" id="CIQmJ90C-115Lp31ua7k">
    <mxGraphModel dx="946" dy="605" grid="1" gridSize="10" guides="1" tooltips="1" connect="1" arrows="1" fold="1" page="1" pageScale="1" pageWidth="1100" pageHeight="850" math="0" shadow="0">
      <root>
        <mxCell id="0" />
        <mxCell id="1" parent="0" />
        <mxCell id="99phXxcbLtcmEOL5IYVI-7" value="Controller Station" style="rounded=0;whiteSpace=wrap;html=1;verticalAlign=top;align=left;fillColor=none;" vertex="1" parent="1">
          <mxGeometry x="40" y="133" width="300" height="217" as="geometry" />
        </mxCell>
        <mxCell id="EnCnA1M5K4a9lU9FgqN9-10" value="Taisync Telemetry" style="rounded=0;whiteSpace=wrap;html=1;verticalAlign=top;align=left;fillColor=none;" parent="1" vertex="1">
          <mxGeometry x="780" y="250" width="280" height="290" as="geometry" />
        </mxCell>
        <mxCell id="EnCnA1M5K4a9lU9FgqN9-9" value="Fortigate Firewall" style="rounded=0;whiteSpace=wrap;html=1;verticalAlign=top;align=left;fillColor=none;" parent="1" vertex="1">
          <mxGeometry x="560" y="140" width="210" height="130" as="geometry" />
        </mxCell>
        <mxCell id="EnCnA1M5K4a9lU9FgqN9-5" style="edgeStyle=orthogonalEdgeStyle;rounded=0;orthogonalLoop=1;jettySize=auto;html=1;exitX=1;exitY=0.36;exitDx=0;exitDy=0;exitPerimeter=0;entryX=-0.017;entryY=0.279;entryDx=0;entryDy=0;entryPerimeter=0;startArrow=classic;startFill=1;" parent="1" source="EnCnA1M5K4a9lU9FgqN9-1" target="EnCnA1M5K4a9lU9FgqN9-4" edge="1">
          <mxGeometry relative="1" as="geometry" />
        </mxCell>
        <mxCell id="EnCnA1M5K4a9lU9FgqN9-1" value="" style="outlineConnect=0;dashed=0;verticalLabelPosition=bottom;verticalAlign=top;align=center;html=1;shape=mxgraph.aws3.vpn_connection;fillColor=#F58536;gradientColor=none;" parent="1" vertex="1">
          <mxGeometry x="450" y="200" width="58.5" height="48" as="geometry" />
        </mxCell>
        <mxCell id="EnCnA1M5K4a9lU9FgqN9-4" value="" style="image;aspect=fixed;html=1;points=[];align=center;fontSize=12;image=img/lib/azure2/networking/Azure_Firewall_Manager.svg;" parent="1" vertex="1">
          <mxGeometry x="620" y="200" width="70" height="60" as="geometry" />
        </mxCell>
        <mxCell id="EnCnA1M5K4a9lU9FgqN9-6" value="" style="fillColor=#28A8E0;verticalLabelPosition=bottom;sketch=0;html=1;strokeColor=#ffffff;verticalAlign=top;align=center;points=[[0.145,0.145,0],[0.5,0,0],[0.855,0.145,0],[1,0.5,0],[0.855,0.855,0],[0.5,1,0],[0.145,0.855,0],[0,0.5,0]];pointerEvents=1;shape=mxgraph.cisco_safe.compositeIcon;bgIcon=ellipse;resIcon=mxgraph.cisco_safe.capability.wireless_connection;" parent="1" vertex="1">
          <mxGeometry x="700" y="173.5" width="43" height="43" as="geometry" />
        </mxCell>
        <mxCell id="EnCnA1M5K4a9lU9FgqN9-7" value="" style="endArrow=classic;html=1;rounded=0;exitX=0.997;exitY=0.546;exitDx=0;exitDy=0;exitPerimeter=0;entryX=0.5;entryY=1;entryDx=0;entryDy=0;entryPerimeter=0;" parent="1" source="EnCnA1M5K4a9lU9FgqN9-4" target="EnCnA1M5K4a9lU9FgqN9-6" edge="1">
          <mxGeometry width="50" height="50" relative="1" as="geometry">
            <mxPoint x="720" y="290" as="sourcePoint" />
            <mxPoint x="770" y="240" as="targetPoint" />
            <Array as="points">
              <mxPoint x="720" y="233" />
            </Array>
          </mxGeometry>
        </mxCell>
        <mxCell id="EnCnA1M5K4a9lU9FgqN9-19" style="edgeStyle=orthogonalEdgeStyle;rounded=0;orthogonalLoop=1;jettySize=auto;html=1;exitX=0.145;exitY=0.855;exitDx=0;exitDy=0;exitPerimeter=0;entryX=0.25;entryY=0;entryDx=0;entryDy=0;" parent="1" source="EnCnA1M5K4a9lU9FgqN9-8" target="EnCnA1M5K4a9lU9FgqN9-17" edge="1">
          <mxGeometry relative="1" as="geometry" />
        </mxCell>
        <mxCell id="EnCnA1M5K4a9lU9FgqN9-8" value="" style="fillColor=#28A8E0;verticalLabelPosition=bottom;sketch=0;html=1;strokeColor=#ffffff;verticalAlign=top;align=center;points=[[0.145,0.145,0],[0.5,0,0],[0.855,0.145,0],[1,0.5,0],[0.855,0.855,0],[0.5,1,0],[0.145,0.855,0],[0,0.5,0]];pointerEvents=1;shape=mxgraph.cisco_safe.compositeIcon;bgIcon=ellipse;resIcon=mxgraph.cisco_safe.capability.wireless_connection;flipH=1;" parent="1" vertex="1">
          <mxGeometry x="790" y="280" width="43" height="43" as="geometry" />
        </mxCell>
        <mxCell id="EnCnA1M5K4a9lU9FgqN9-20" style="edgeStyle=orthogonalEdgeStyle;rounded=0;orthogonalLoop=1;jettySize=auto;html=1;exitX=0.5;exitY=0;exitDx=0;exitDy=0;entryX=0.25;entryY=1;entryDx=0;entryDy=0;" parent="1" source="EnCnA1M5K4a9lU9FgqN9-13" target="EnCnA1M5K4a9lU9FgqN9-17" edge="1">
          <mxGeometry relative="1" as="geometry">
            <mxPoint x="870" y="350" as="targetPoint" />
            <Array as="points">
              <mxPoint x="850" y="380" />
              <mxPoint x="870" y="380" />
            </Array>
          </mxGeometry>
        </mxCell>
        <mxCell id="EnCnA1M5K4a9lU9FgqN9-13" value="PX4&lt;br&gt;192.168.144.4" style="rounded=0;whiteSpace=wrap;html=1;" parent="1" vertex="1">
          <mxGeometry x="790" y="400" width="120" height="50" as="geometry" />
        </mxCell>
        <mxCell id="EnCnA1M5K4a9lU9FgqN9-21" style="edgeStyle=orthogonalEdgeStyle;rounded=0;orthogonalLoop=1;jettySize=auto;html=1;exitX=0.5;exitY=0;exitDx=0;exitDy=0;entryX=0.75;entryY=1;entryDx=0;entryDy=0;" parent="1" source="EnCnA1M5K4a9lU9FgqN9-14" target="EnCnA1M5K4a9lU9FgqN9-17" edge="1">
          <mxGeometry relative="1" as="geometry">
            <Array as="points">
              <mxPoint x="1015" y="380" />
              <mxPoint x="930" y="380" />
            </Array>
          </mxGeometry>
        </mxCell>
        <mxCell id="EnCnA1M5K4a9lU9FgqN9-14" value="RPi&lt;br&gt;eth: 192.168.144.5&lt;br&gt;wifi: 10.0.0.35" style="rounded=0;whiteSpace=wrap;html=1;" parent="1" vertex="1">
          <mxGeometry x="930" y="400" width="120" height="50" as="geometry" />
        </mxCell>
        <mxCell id="EnCnA1M5K4a9lU9FgqN9-17" value="Switch" style="rounded=0;whiteSpace=wrap;html=1;fillColor=#60a917;fontColor=#ffffff;strokeColor=#2D7600;" parent="1" vertex="1">
          <mxGeometry x="840" y="338" width="120" height="22" as="geometry" />
        </mxCell>
        <mxCell id="EnCnA1M5K4a9lU9FgqN9-22" value="" style="image;points=[];aspect=fixed;html=1;align=center;shadow=0;dashed=0;image=img/lib/allied_telesis/security/Surveillance_Camera_Ceiling.svg;" parent="1" vertex="1">
          <mxGeometry x="991.4" y="302.6" width="37.2" height="35.4" as="geometry" />
        </mxCell>
        <mxCell id="EnCnA1M5K4a9lU9FgqN9-24" value="" style="endArrow=classic;html=1;rounded=0;exitX=0.49;exitY=0.008;exitDx=0;exitDy=0;exitPerimeter=0;entryX=0.75;entryY=0;entryDx=0;entryDy=0;" parent="1" source="EnCnA1M5K4a9lU9FgqN9-22" target="EnCnA1M5K4a9lU9FgqN9-17" edge="1">
          <mxGeometry width="50" height="50" relative="1" as="geometry">
            <mxPoint x="780" y="410" as="sourcePoint" />
            <mxPoint x="830" y="360" as="targetPoint" />
            <Array as="points">
              <mxPoint x="1010" y="280" />
              <mxPoint x="930" y="280" />
            </Array>
          </mxGeometry>
        </mxCell>
        <mxCell id="99phXxcbLtcmEOL5IYVI-1" value="192.168.144.25" style="text;html=1;align=center;verticalAlign=middle;whiteSpace=wrap;rounded=0;" vertex="1" parent="1">
          <mxGeometry x="980" y="338" width="60" height="30" as="geometry" />
        </mxCell>
        <mxCell id="99phXxcbLtcmEOL5IYVI-2" value="" style="fillColor=#28A8E0;verticalLabelPosition=bottom;sketch=0;html=1;strokeColor=#ffffff;verticalAlign=top;align=center;points=[[0.145,0.145,0],[0.5,0,0],[0.855,0.145,0],[1,0.5,0],[0.855,0.855,0],[0.5,1,0],[0.145,0.855,0],[0,0.5,0]];pointerEvents=1;shape=mxgraph.cisco_safe.compositeIcon;bgIcon=ellipse;resIcon=mxgraph.cisco_safe.capability.wireless_connection;flipH=1;" vertex="1" parent="1">
          <mxGeometry x="910" y="450" width="43" height="43" as="geometry" />
        </mxCell>
        <mxCell id="99phXxcbLtcmEOL5IYVI-3" value="WiFi Connected to ASUS for MoCAP" style="text;html=1;align=left;verticalAlign=top;whiteSpace=wrap;rounded=0;" vertex="1" parent="1">
          <mxGeometry x="960" y="450" width="100" height="43.5" as="geometry" />
        </mxCell>
        <mxCell id="99phXxcbLtcmEOL5IYVI-4" value="Taisync through LAN P:2" style="text;html=1;align=center;verticalAlign=top;whiteSpace=wrap;rounded=0;" vertex="1" parent="1">
          <mxGeometry x="676.5" y="138" width="90" height="30" as="geometry" />
        </mxCell>
        <mxCell id="99phXxcbLtcmEOL5IYVI-5" value="Over Internet Secure Connection" style="text;html=1;align=center;verticalAlign=top;whiteSpace=wrap;rounded=0;" vertex="1" parent="1">
          <mxGeometry x="400" y="165" width="158.5" height="30" as="geometry" />
        </mxCell>
        <mxCell id="99phXxcbLtcmEOL5IYVI-6" value="" style="image;points=[];aspect=fixed;html=1;align=center;shadow=0;dashed=0;image=img/lib/allied_telesis/computer_and_terminals/Laptop.svg;" vertex="1" parent="1">
          <mxGeometry x="220" y="191.9" width="42" height="42.599999999999994" as="geometry" />
        </mxCell>
        <mxCell id="99phXxcbLtcmEOL5IYVI-8" value="" style="image;aspect=fixed;perimeter=ellipsePerimeter;html=1;align=center;shadow=0;dashed=0;spacingTop=3;image=img/lib/active_directory/secure.svg;" vertex="1" parent="1">
          <mxGeometry x="249.2" y="186" width="12.8" height="20" as="geometry" />
        </mxCell>
        <mxCell id="99phXxcbLtcmEOL5IYVI-9" style="edgeStyle=orthogonalEdgeStyle;rounded=0;orthogonalLoop=1;jettySize=auto;html=1;exitX=0.959;exitY=0.599;exitDx=0;exitDy=0;exitPerimeter=0;entryX=0;entryY=0.36;entryDx=0;entryDy=0;entryPerimeter=0;startArrow=classic;startFill=1;" edge="1" parent="1" source="99phXxcbLtcmEOL5IYVI-6" target="EnCnA1M5K4a9lU9FgqN9-1">
          <mxGeometry relative="1" as="geometry">
            <mxPoint x="519" y="227" as="sourcePoint" />
            <mxPoint x="629" y="227" as="targetPoint" />
          </mxGeometry>
        </mxCell>
        <mxCell id="99phXxcbLtcmEOL5IYVI-10" value="vpn FortiClient:&lt;div&gt;&amp;nbsp;192.168.144.100-200&lt;/div&gt;" style="text;html=1;align=center;verticalAlign=top;whiteSpace=wrap;rounded=0;" vertex="1" parent="1">
          <mxGeometry x="170" y="150" width="158.5" height="30" as="geometry" />
        </mxCell>
        <mxCell id="99phXxcbLtcmEOL5IYVI-11" value="Pixhawk" style="strokeColor=#dddddd;shadow=1;strokeWidth=1;rounded=1;absoluteArcSize=1;arcSize=2;labelPosition=center;verticalLabelPosition=middle;align=center;verticalAlign=bottom;spacingLeft=0;fontColor=#999999;fontSize=12;whiteSpace=wrap;spacingBottom=2;html=1;" vertex="1" parent="1">
          <mxGeometry x="80" y="248" width="70" height="85.5" as="geometry" />
        </mxCell>
        <mxCell id="99phXxcbLtcmEOL5IYVI-12" value="" style="sketch=0;dashed=0;connectable=0;html=1;fillColor=#757575;strokeColor=none;shape=mxgraph.gcp2.circuit_board;part=1;" vertex="1" parent="99phXxcbLtcmEOL5IYVI-11">
          <mxGeometry x="0.5" width="50" height="45" relative="1" as="geometry">
            <mxPoint x="-25" y="12.5" as="offset" />
          </mxGeometry>
        </mxCell>
        <mxCell id="99phXxcbLtcmEOL5IYVI-13" style="edgeStyle=orthogonalEdgeStyle;rounded=0;orthogonalLoop=1;jettySize=auto;html=1;exitX=1;exitY=0.5;exitDx=0;exitDy=0;entryX=0.435;entryY=0.93;entryDx=0;entryDy=0;entryPerimeter=0;startArrow=classic;startFill=1;" edge="1" parent="1" source="99phXxcbLtcmEOL5IYVI-11" target="99phXxcbLtcmEOL5IYVI-6">
          <mxGeometry relative="1" as="geometry" />
        </mxCell>
        <mxCell id="99phXxcbLtcmEOL5IYVI-14" value="eth:&lt;div&gt;192.168.145.4&lt;/div&gt;" style="text;html=1;align=left;verticalAlign=top;whiteSpace=wrap;rounded=0;" vertex="1" parent="1">
          <mxGeometry x="160" y="286.5" width="128.5" height="30" as="geometry" />
        </mxCell>
        <mxCell id="99phXxcbLtcmEOL5IYVI-15" value="eth:&lt;div&gt;192.168.145.6&lt;/div&gt;" style="text;html=1;align=left;verticalAlign=top;whiteSpace=wrap;rounded=0;" vertex="1" parent="1">
          <mxGeometry x="240" y="230" width="128.5" height="30" as="geometry" />
        </mxCell>
      </root>
    </mxGraphModel>
  </diagram>
</mxfile>
